<svg width="162" height="65" viewBox="0 0 162 65" fill="none" xmlns="http://www.w3.org/2000/svg">
<path d="M162 32.5C162 50.4493 125.735 65 81 65C36.2649 65 0 50.4493 0 32.5C0 14.5507 36.2649 0 81 0C125.735 0 162 14.5507 162 32.5Z" fill="#11A6E1"/>
<g filter="url(#filter0_d_201_5)">
<path d="M35.98 32.08C33.4867 32.08 31.64 31.3733 30.44 29.96C30.0133 29.4533 29.6667 28.78 29.4 27.94C29.1333 27.1 29 26.08 29 24.88C29 23.68 29.1933 22.6067 29.58 21.66C29.98 20.7 30.52 19.96 31.2 19.44C32.52 18.4667 34.1133 17.98 35.98 17.98C36.58 17.98 37.1667 18.0267 37.74 18.12C38.3133 18.2 38.74 18.2867 39.02 18.38L39.44 18.52L39.38 18.72C38.34 18.36 37.2067 18.18 35.98 18.18C34.5667 18.18 33.3867 18.64 32.44 19.56C31.72 20.24 31.2133 21.24 30.92 22.56C30.7467 23.3067 30.66 24.22 30.66 25.3C30.66 26.38 30.8133 27.38 31.12 28.3C31.4267 29.2067 31.7733 29.88 32.16 30.32C32.56 30.76 33.04 31.1133 33.6 31.38C34.16 31.6333 34.6067 31.78 34.94 31.82C35.2733 31.86 35.6667 31.88 36.12 31.88C36.5867 31.88 37.2067 31.8267 37.98 31.72V27.6H35.56V27.4H40.5V27.6H39.64V31.54C38.6267 31.9 37.4067 32.08 35.98 32.08ZM45.413 22.86V22.44C44.813 22.68 44.2663 23.1667 43.773 23.9C43.2796 24.62 43.0196 25.3 42.993 25.94V32H41.593V22H42.993V25.18C43.2063 24.4067 43.613 23.68 44.213 23C44.813 22.3067 45.493 21.9467 46.253 21.92H46.333C46.5996 21.92 46.8196 22.0133 46.993 22.2C47.1796 22.3733 47.273 22.5933 47.273 22.86C47.273 23.1267 47.1796 23.3467 46.993 23.52C46.8196 23.6933 46.5996 23.78 46.333 23.78C46.0663 23.78 45.8463 23.6933 45.673 23.52C45.4996 23.3467 45.413 23.1267 45.413 22.86ZM56.435 32C55.5283 32 54.9083 31.8267 54.575 31.48C54.2683 31.1867 54.115 30.9333 54.115 30.72V30.3C53.4617 31.4867 52.415 32.08 50.975 32.08C49.295 32.08 48.3417 31.32 48.115 29.8C48.0883 29.64 48.075 29.48 48.075 29.32C48.075 29.1467 48.1017 28.96 48.155 28.76C48.2083 28.56 48.3617 28.34 48.615 28.1C49.1217 27.62 50.235 27.3267 51.955 27.22C52.3817 27.18 52.775 27.16 53.135 27.16C53.495 27.16 53.8217 27.1733 54.115 27.2V23.88C54.0883 23.8667 54.0883 23.8067 54.115 23.7C54.1417 23.58 54.115 23.4333 54.035 23.26C53.9683 23.0733 53.875 22.8933 53.755 22.72C53.635 22.5467 53.4217 22.4 53.115 22.28C52.8083 22.1467 52.4083 22.08 51.915 22.08C51.4217 22.08 50.8417 22.1733 50.175 22.36C49.5217 22.5333 49.0417 22.7067 48.735 22.88L48.655 22.74C49.8417 22.1933 51.0483 21.92 52.275 21.92C53.6483 21.92 54.555 22.1667 54.995 22.66C55.3417 23.0467 55.515 23.4533 55.515 23.88V30.58C55.515 30.9667 55.5883 31.2667 55.735 31.48C55.895 31.68 56.055 31.7867 56.215 31.8L56.435 31.84H57.055V32H56.435ZM51.295 31.92C52.0017 31.92 52.635 31.68 53.195 31.2C53.7683 30.7067 54.075 30.2333 54.115 29.78V27.36C53.755 27.3333 53.3883 27.32 53.015 27.32C52.655 27.32 52.295 27.34 51.935 27.38C50.9217 27.5 50.2617 27.7267 49.955 28.06C49.6483 28.3933 49.495 28.8533 49.495 29.44C49.495 29.5467 49.5017 29.6667 49.515 29.8C49.635 31.2133 50.2283 31.92 51.295 31.92ZM66.4555 32C65.9088 32 65.4888 31.88 65.1955 31.64C64.9155 31.4 64.7688 31.16 64.7555 30.92L64.7355 30.58V24.3C64.7355 23.2467 64.4621 22.5733 63.9155 22.28C63.6355 22.1467 63.2888 22.08 62.8755 22.08C62.0221 22.08 61.2555 22.42 60.5755 23.1C59.8955 23.7667 59.5555 24.3667 59.5555 24.9V32H58.1555V22H59.5555V24.28C59.7821 23.7067 60.2021 23.1733 60.8155 22.68C61.4288 22.1733 62.1021 21.92 62.8355 21.92C63.5688 21.92 64.1621 21.9933 64.6155 22.14C65.0821 22.2733 65.4221 22.4667 65.6355 22.72C65.9688 23.1333 66.1355 23.6667 66.1355 24.32V30.58C66.1355 30.9667 66.2088 31.2667 66.3555 31.48C66.5155 31.68 66.6755 31.7867 66.8355 31.8L67.0555 31.84H67.6755V32H66.4555ZM68.4875 27.36C68.4875 25.6267 68.9075 24.2867 69.7475 23.34C70.5875 22.3933 71.8475 21.92 73.5275 21.92C74.3142 21.92 75.1075 22.12 75.9075 22.52V17.02H77.3075V30.58C77.3075 30.9667 77.3808 31.2667 77.5275 31.48C77.6875 31.68 77.8475 31.7867 78.0075 31.8L78.2275 31.84H78.8475V32H77.6275C77.0808 32 76.6608 31.88 76.3675 31.64C76.0875 31.4 75.9408 31.16 75.9275 30.92L75.9075 30.58V30.26C75.6542 30.7267 75.2342 31.14 74.6475 31.5C74.0608 31.86 73.3675 32.04 72.5675 32.04C69.8475 31.9733 68.4875 30.4133 68.4875 27.36ZM72.5875 31.88C73.4808 31.88 74.2475 31.64 74.8875 31.16C75.5275 30.68 75.8675 30.2067 75.9075 29.74V22.7C74.9608 22.2867 74.1475 22.08 73.4675 22.08C72.2808 22.08 71.3875 22.5467 70.7875 23.48C70.1875 24.4 69.8875 25.6933 69.8875 27.36C69.8875 30.3733 70.7875 31.88 72.5875 31.88ZM35.98 48.08C33.4867 48.08 31.64 47.3733 30.44 45.96C30.0133 45.4533 29.6667 44.78 29.4 43.94C29.1333 43.1 29 42.08 29 40.88C29 39.68 29.1933 38.6067 29.58 37.66C29.98 36.7 30.52 35.96 31.2 35.44C32.52 34.4667 34.1133 33.98 35.98 33.98C36.5133 33.98 37.0333 34.0267 37.54 34.12C38.0467 34.2 38.4267 34.2867 38.68 34.38L39.04 34.52L38.98 34.72C38.0733 34.36 37.0733 34.18 35.98 34.18C34.5667 34.18 33.3867 34.64 32.44 35.56C31.72 36.24 31.2133 37.24 30.92 38.56C30.7467 39.3067 30.66 40.22 30.66 41.3C30.66 42.38 30.8133 43.38 31.12 44.3C31.4267 45.2067 31.7733 45.88 32.16 46.32C32.56 46.76 33.04 47.1133 33.6 47.38C34.16 47.6333 34.6067 47.78 34.94 47.82C35.2733 47.86 35.6733 47.88 36.14 47.88C36.62 47.88 37.16 47.8333 37.76 47.74C38.36 47.6467 38.8133 47.56 39.12 47.48L39.58 47.34L39.64 47.54C38.6267 47.9 37.4067 48.08 35.98 48.08ZM45.4931 48.08C44.0931 48.08 42.9531 47.68 42.0731 46.88C41.1931 46.08 40.7531 44.8467 40.7531 43.18C40.7531 41.5133 41.2065 40.22 42.1131 39.3C43.0331 38.38 44.1931 37.92 45.5931 37.92C47.0065 37.92 48.1531 38.32 49.0331 39.12C49.9131 39.92 50.3531 41.1533 50.3531 42.82C50.3531 44.4867 49.8931 45.78 48.9731 46.7C48.0665 47.62 46.9065 48.08 45.4931 48.08ZM45.6331 38.08C44.6198 38.08 43.7798 38.5333 43.1131 39.44C42.4465 40.3333 42.1131 41.5867 42.1131 43.2C42.1131 44.8 42.4198 45.9867 43.0331 46.76C43.6465 47.5333 44.4598 47.92 45.4731 47.92C46.4865 47.92 47.3265 47.4733 47.9931 46.58C48.6598 45.6733 48.9931 44.42 48.9931 42.82C48.9931 41.2067 48.6865 40.0133 48.0731 39.24C47.4598 38.4667 46.6465 38.08 45.6331 38.08ZM57.3939 38.7C57.1806 38.5267 56.8339 38.38 56.3539 38.26C55.8872 38.14 55.5339 38.08 55.2939 38.08C55.0539 38.08 54.9139 38.08 54.8739 38.08C54.1539 38.0933 53.6339 38.28 53.3139 38.64C52.9939 38.9867 52.8339 39.38 52.8339 39.82C52.8339 40.26 52.9739 40.6333 53.2539 40.94C53.5339 41.2333 53.8806 41.4667 54.2939 41.64C54.7206 41.8 55.1739 41.9867 55.6539 42.2C56.1472 42.4133 56.6006 42.6333 57.0139 42.86C57.4406 43.0733 57.7939 43.3933 58.0739 43.82C58.3539 44.2333 58.4939 44.7533 58.4939 45.38C58.4939 46.0067 58.2739 46.54 57.8339 46.98C57.3939 47.42 56.9006 47.7133 56.3539 47.86C55.8206 48.0067 55.2406 48.08 54.6139 48.08C53.2539 48.08 52.2339 47.78 51.5539 47.18L51.6739 47.06C51.9406 47.3133 52.3339 47.52 52.8539 47.68C53.3872 47.84 53.9006 47.92 54.3939 47.92C55.1806 47.92 55.8272 47.7067 56.3339 47.28C56.8539 46.84 57.1139 46.3 57.1139 45.66C57.1139 45.0067 56.9206 44.4867 56.5339 44.1C56.1472 43.7 55.6739 43.3933 55.1139 43.18C54.5672 42.9533 54.0139 42.7333 53.4539 42.52C52.8939 42.2933 52.4206 41.9867 52.0339 41.6C51.6472 41.2 51.4539 40.74 51.4539 40.22C51.4539 39.7 51.5739 39.28 51.8139 38.96C52.0539 38.6267 52.3739 38.3933 52.7739 38.26C53.4539 38.0333 54.1339 37.92 54.8139 37.92C55.9606 37.92 56.8539 38.1333 57.4939 38.56L57.3939 38.7ZM71.6608 40.3C71.6608 39.4867 71.5541 38.9133 71.3408 38.58C71.1274 38.2467 70.7208 38.08 70.1208 38.08C69.3208 38.08 68.6074 38.4133 67.9808 39.08C67.3674 39.7467 67.0608 40.3467 67.0608 40.88V48H65.6608V40.3C65.6608 39.4867 65.5541 38.9133 65.3408 38.58C65.1274 38.2467 64.6741 38.08 63.9808 38.08C63.2874 38.08 62.6274 38.4 62.0008 39.04C61.3874 39.68 61.0541 40.2733 61.0008 40.82V48H59.6008V38H61.0008V40.26C61.2141 39.6867 61.6074 39.1533 62.1808 38.66C62.7541 38.1667 63.3941 37.92 64.1008 37.92C64.8074 37.92 65.3674 37.9867 65.7808 38.12C66.2074 38.24 66.5074 38.4333 66.6808 38.7C66.8541 38.9667 66.9608 39.2 67.0008 39.4C67.0408 39.6 67.0608 39.88 67.0608 40.24C67.2741 39.6667 67.6608 39.14 68.2208 38.66C68.7808 38.1667 69.3808 37.92 70.0208 37.92C70.6608 37.92 71.1741 37.9733 71.5608 38.08C71.9474 38.1867 72.2341 38.3067 72.4208 38.44C72.6208 38.5733 72.7674 38.7667 72.8608 39.02C72.9674 39.2733 73.0274 39.48 73.0408 39.64C73.0541 39.8 73.0608 40.0267 73.0608 40.32V46.58C73.0608 46.9667 73.1341 47.2667 73.2808 47.48C73.4408 47.68 73.6008 47.7867 73.7608 47.8L73.9808 47.84H74.6008V48H73.3808C72.8341 48 72.4141 47.88 72.1208 47.64C71.8408 47.4 71.6941 47.16 71.6808 46.92L71.6608 46.58V40.3ZM79.7314 48.08C78.3314 48.08 77.1914 47.68 76.3114 46.88C75.4314 46.08 74.9914 44.8467 74.9914 43.18C74.9914 41.5133 75.4447 40.22 76.3514 39.3C77.2714 38.38 78.4314 37.92 79.8314 37.92C81.2447 37.92 82.3914 38.32 83.2714 39.12C84.1514 39.92 84.5914 41.1533 84.5914 42.82C84.5914 44.4867 84.1314 45.78 83.2114 46.7C82.3047 47.62 81.1447 48.08 79.7314 48.08ZM79.8714 38.08C78.8581 38.08 78.0181 38.5333 77.3514 39.44C76.6847 40.3333 76.3514 41.5867 76.3514 43.2C76.3514 44.8 76.6581 45.9867 77.2714 46.76C77.8847 47.5333 78.6981 47.92 79.7114 47.92C80.7247 47.92 81.5647 47.4733 82.2314 46.58C82.8981 45.6733 83.2314 44.42 83.2314 42.82C83.2314 41.2067 82.9247 40.0133 82.3114 39.24C81.6981 38.4667 80.8847 38.08 79.8714 38.08ZM85.9922 38H87.3922V40.48C87.6189 39.8667 88.0389 39.2867 88.6522 38.74C89.2655 38.1933 89.9589 37.92 90.7322 37.92C93.4389 37.92 94.7922 39.5067 94.7922 42.68C94.7922 46.28 93.0455 48.08 89.5522 48.08C88.9255 48.08 88.2055 47.9333 87.3922 47.64V53H85.9922V38ZM90.7122 38.08C89.8855 38.08 89.1389 38.44 88.4722 39.16C87.8055 39.8667 87.4455 40.5067 87.3922 41.08V47.46C88.2055 47.7667 88.9189 47.92 89.5322 47.92C92.1055 47.92 93.3922 46.1667 93.3922 42.66C93.3922 39.6067 92.4989 38.08 90.7122 38.08ZM101.138 48.08C99.7377 48.08 98.5977 47.68 97.7177 46.88C96.8377 46.08 96.3977 44.8467 96.3977 43.18C96.3977 41.5133 96.851 40.22 97.7577 39.3C98.6777 38.38 99.8377 37.92 101.238 37.92C102.651 37.92 103.798 38.32 104.678 39.12C105.558 39.92 105.998 41.1533 105.998 42.82C105.998 44.4867 105.538 45.78 104.618 46.7C103.711 47.62 102.551 48.08 101.138 48.08ZM101.278 38.08C100.264 38.08 99.4243 38.5333 98.7577 39.44C98.091 40.3333 97.7577 41.5867 97.7577 43.2C97.7577 44.8 98.0643 45.9867 98.6777 46.76C99.291 47.5333 100.104 47.92 101.118 47.92C102.131 47.92 102.971 47.4733 103.638 46.58C104.304 45.6733 104.638 44.42 104.638 42.82C104.638 41.2067 104.331 40.0133 103.718 39.24C103.104 38.4667 102.291 38.08 101.278 38.08ZM110.129 48C108.956 48 108.216 47.6933 107.909 47.08C107.842 46.9467 107.809 46.8267 107.809 46.72V33.02H109.209V46.58C109.209 46.9667 109.282 47.2667 109.429 47.48C109.589 47.68 109.749 47.7867 109.909 47.8L110.129 47.84H110.749V48H110.129ZM113.906 48C113.36 48 112.94 47.88 112.646 47.64C112.366 47.4 112.22 47.16 112.206 46.92L112.186 46.58V38H113.586V46.58C113.586 46.9667 113.66 47.2667 113.806 47.48C113.966 47.68 114.12 47.7867 114.266 47.8L114.506 47.84H115.126V48H113.906ZM112.306 35.76C112.146 35.6 112.066 35.4 112.066 35.16C112.066 34.92 112.146 34.72 112.306 34.56C112.466 34.3867 112.666 34.3 112.906 34.3C113.146 34.3 113.346 34.3867 113.506 34.56C113.68 34.72 113.766 34.92 113.766 35.16C113.766 35.4 113.68 35.6 113.506 35.76C113.346 35.92 113.146 36 112.906 36C112.666 36 112.466 35.92 112.306 35.76ZM116.63 38.16V38H117.05V36H118.45V38H121.51V38.16H118.45V45.44C118.45 46.3067 118.543 46.9333 118.73 47.32C118.93 47.7067 119.336 47.9 119.95 47.9C120.576 47.9 121.21 47.7733 121.85 47.52L121.91 47.68C121.243 47.9333 120.476 48.06 119.61 48.06C118.756 48.06 118.116 47.8867 117.69 47.54C117.263 47.18 117.05 46.4733 117.05 45.42V38.16H116.63ZM131.279 48C130.372 48 129.752 47.8267 129.419 47.48C129.112 47.1867 128.959 46.9333 128.959 46.72V46.3C128.305 47.4867 127.259 48.08 125.819 48.08C124.139 48.08 123.185 47.32 122.959 45.8C122.932 45.64 122.919 45.48 122.919 45.32C122.919 45.1467 122.945 44.96 122.999 44.76C123.052 44.56 123.205 44.34 123.459 44.1C123.965 43.62 125.079 43.3267 126.799 43.22C127.225 43.18 127.619 43.16 127.979 43.16C128.339 43.16 128.665 43.1733 128.959 43.2V39.88C128.932 39.8667 128.932 39.8067 128.959 39.7C128.985 39.58 128.959 39.4333 128.879 39.26C128.812 39.0733 128.719 38.8933 128.599 38.72C128.479 38.5467 128.265 38.4 127.959 38.28C127.652 38.1467 127.252 38.08 126.759 38.08C126.265 38.08 125.685 38.1733 125.019 38.36C124.365 38.5333 123.885 38.7067 123.579 38.88L123.499 38.74C124.685 38.1933 125.892 37.92 127.119 37.92C128.492 37.92 129.399 38.1667 129.839 38.66C130.185 39.0467 130.359 39.4533 130.359 39.88V46.58C130.359 46.9667 130.432 47.2667 130.579 47.48C130.739 47.68 130.899 47.7867 131.059 47.8L131.279 47.84H131.899V48H131.279ZM126.139 47.92C126.845 47.92 127.479 47.68 128.039 47.2C128.612 46.7067 128.919 46.2333 128.959 45.78V43.36C128.599 43.3333 128.232 43.32 127.859 43.32C127.499 43.32 127.139 43.34 126.779 43.38C125.765 43.5 125.105 43.7267 124.799 44.06C124.492 44.3933 124.339 44.8533 124.339 45.44C124.339 45.5467 124.345 45.6667 124.359 45.8C124.479 47.2133 125.072 47.92 126.139 47.92ZM141.299 48C140.753 48 140.333 47.88 140.039 47.64C139.759 47.4 139.613 47.16 139.599 46.92L139.579 46.58V40.3C139.579 39.2467 139.306 38.5733 138.759 38.28C138.479 38.1467 138.133 38.08 137.719 38.08C136.866 38.08 136.099 38.42 135.419 39.1C134.739 39.7667 134.399 40.3667 134.399 40.9V48H132.999V38H134.399V40.28C134.626 39.7067 135.046 39.1733 135.659 38.68C136.273 38.1733 136.946 37.92 137.679 37.92C138.413 37.92 139.006 37.9933 139.459 38.14C139.926 38.2733 140.266 38.4667 140.479 38.72C140.813 39.1333 140.979 39.6667 140.979 40.32V46.58C140.979 46.9667 141.053 47.2667 141.199 47.48C141.359 47.68 141.519 47.7867 141.679 47.8L141.899 47.84H142.519V48H141.299Z" fill="black"/>
</g>
<defs>
<filter id="filter0_d_201_5" x="25" y="17.02" width="121.519" height="43.98" filterUnits="userSpaceOnUse" color-interpolation-filters="sRGB">
<feFlood flood-opacity="0" result="BackgroundImageFix"/>
<feColorMatrix in="SourceAlpha" type="matrix" values="0 0 0 0 0 0 0 0 0 0 0 0 0 0 0 0 0 0 127 0" result="hardAlpha"/>
<feOffset dy="4"/>
<feGaussianBlur stdDeviation="2"/>
<feComposite in2="hardAlpha" operator="out"/>
<feColorMatrix type="matrix" values="0 0 0 0 0 0 0 0 0 0 0 0 0 0 0 0 0 0 0.25 0"/>
<feBlend mode="normal" in2="BackgroundImageFix" result="effect1_dropShadow_201_5"/>
<feBlend mode="normal" in="SourceGraphic" in2="effect1_dropShadow_201_5" result="shape"/>
</filter>
</defs>
</svg>
